<svg width="496" height="408" fill="none" xmlns="http://www.w3.org/2000/svg"><g clip-path="url(#a)"><path d="m137.323 399.005 8.857-1.049.338-36.114-13.072 1.547 3.877 35.616Z" fill="#FFB8B8"/><path d="m164.195 404.51-27.837 3.293-1.221-11.212 17.082-2.021c2.853-.337 5.717.52 7.963 2.385 2.246 1.864 3.69 4.582 4.013 7.555Z" fill="#2F2E41"/><path d="M46.23 398.428h8.915l4.24-35.846-13.156.002.002 35.844Z" fill="#FFB8B8"/><path d="m72.337 407.056-28.016.001v-11.284l17.191-.001c2.871 0 5.624 1.189 7.654 3.305 2.03 2.116 3.17 4.986 3.171 7.979Zm37.851-168.923 5.09 17.259 27.63 62.332 7.271 59.125-16.723.758-10.18-54.577-34.901-39.416-30.538 103.089-13.816-1.516s11.634-133.41 27.63-147.054c0 0 26.176-12.886 38.537 0Z" fill="#2F2E41"/><path d="M87.61 163.662c9.864 0 17.859-8.336 17.859-18.618 0-10.282-7.995-18.617-17.858-18.617s-17.859 8.335-17.859 18.617 7.996 18.618 17.859 18.618Z" fill="#FFB8B8"/><path d="M112.006 241.544s2.181-77.317-28.357-72.011c-30.539 5.306-17.814 79.97-17.814 79.97s6.544 13.644 22.54-1.516c15.996-15.16 23.631-6.443 23.631-6.443Z" fill="#CCC"/><path opacity=".2" d="m69.834 202.128 7.186 28.716 10.948 11.414-15.225-5.262-2.909-34.868Z" fill="#000"/><path d="M112.232 274.243a7.258 7.258 0 0 1-2.674-1.772 7.66 7.66 0 0 1-1.704-2.785 7.927 7.927 0 0 1-.414-3.275 7.853 7.853 0 0 1 .955-3.15L91.41 242.762l13.389-1.817 14.076 19.745c1.495 1.045 2.571 2.625 3.023 4.441a7.957 7.957 0 0 1-.57 5.412c-.819 1.671-2.197 2.97-3.874 3.652a7.07 7.07 0 0 1-5.222.048Z" fill="#FFB8B8"/><path d="m91.552 185.281 1.913 39.208 22.54 30.32-9.452 7.58-30.539-31.836s-10.906-38.659-2.908-50.029c3-4.263 6.305-5.436 9.266-5.236 2.436.211 4.714 1.344 6.405 3.185 1.691 1.84 2.678 4.262 2.775 6.808Z" fill="#CCC"/><path d="M85.487 164.606a.766.766 0 0 0 .193-.29.8.8 0 0 0-.058-.685.752.752 0 0 0-.24-.25 10.662 10.662 0 0 1-3.74-4.199 11.209 11.209 0 0 1-1.161-5.6 11.136 11.136 0 0 1 1.743-5.434 10.53 10.53 0 0 1 4.16-3.746c5.25-2.61 12.364-.579 16.246-5.594a9.596 9.596 0 0 0 1.636-3.629 9.797 9.797 0 0 0 .038-4.01c-.837-4.737-4.253-8.254-8.078-10.665-4.7-2.961-10.1-4.491-15.59-4.417-5.49.075-10.851 1.751-15.475 4.838-4.623 3.088-8.325 7.464-10.685 12.633a31.795 31.795 0 0 0-2.669 16.611c.494 4.558 1.843 9.67-.757 13.371-2.288 3.258-6.608 3.869-10.402 4.678-8.139 1.736-15.99 5.741-21.513 12.21-5.523 6.469-8.47 15.546-6.805 24.03 1.666 8.485 8.346 15.941 16.557 17.256 6.683 1.071 13.584-1.888 18.492-6.737 4.908-4.849 8.01-11.397 9.967-18.145 2.323-8.008 3.239-16.638 7.432-23.772 4.103-6.981 12.945-11.986 19.875-8.35a.716.716 0 0 0 .834-.104Z" fill="#2F2E41"/><path d="M223.949 408H.727a.713.713 0 0 1-.514-.222.774.774 0 0 1-.213-.536c0-.201.077-.394.213-.536a.713.713 0 0 1 .514-.222H223.95c.192 0 .377.08.514.222a.776.776 0 0 1 .213.536.776.776 0 0 1-.213.536.715.715 0 0 1-.514.222Zm225.496-258.081c-.04 21.472-7.784 42.151-21.708 57.972-13.924 15.822-33.021 25.641-53.538 27.527-20.517 1.886-40.968-4.296-57.333-17.333-16.366-13.036-27.462-31.983-31.106-53.116-3.645-21.133.425-42.923 11.41-61.086 10.984-18.162 28.089-31.385 47.951-37.067 19.862-5.682 41.044-3.413 59.383 6.361 18.338 9.774 32.506 26.346 39.719 46.459.179.505.355 1.01.525 1.519v.005a85.84 85.84 0 0 1 2.012 6.85 90.023 90.023 0 0 1 2.685 21.909Z" fill="#3F3D56"/><path d="M357.309 91.505a26.997 26.997 0 0 0-12.115-3.473c-4.24-.18-8.463.65-12.347 2.43-3.421 1.551-7.022 4.335-8.163 9.362 4.614-2.84 10.588 1.647 11.776 8.843l-.278.08c-.627 4.984.773 10.411 3.484 13.502a9.743 9.743 0 0 1 1.455-3.894 9.28 9.28 0 0 1 2.917-2.867c1.992-1.364 4.195-2.356 5.715-4.702 1.803-2.781 2.26-6.846 2.976-10.554.716-3.708 2.074-7.694 4.58-8.727Z" fill="#00B0FF"/><path d="M331.478 133.921c-1.278 2.001-2.985 3.257-4.517 4.82-1.769 1.677-2.929 3.938-3.285 6.402-.194 1.741.106 3.511.064 5.272-.041 1.76-.604 3.742-1.753 4.18-1.813.682-3.197-2.829-5.061-3.074-1.482-.192-2.815 2.237-2.386 4.343.429 2.107 2.446 3.04 3.604 1.665 1.047 1.832.309 5.156-1.265 5.719-.166 1.154-.332 2.304-.493 3.458-3.977-2.9-7.996-5.849-11.378-10.096-3.761-4.684-6.094-10.432-6.7-16.508-.438-4.882.213-10.467-1.937-14.223-1.721-3.006-4.674-3.67-7.332-3.482-.484.033-.973.091-1.458.153a87.663 87.663 0 0 1 5.947-14.189 5.79 5.79 0 0 0 1.491-.967c2.473-2.188 3.571-6.619 5.578-9.683.129-.197.263-.39.401-.577 2.054-2.794 4.803-4.232 7.461-5.57 5.883-2.977 11.936-5.993 18.146-5.58l-1.767.179c-2.062 6.022-4.126 12.044-6.192 18.066-.313.924-.63 1.849-.95 2.775-1.172 3.425-2.381 7.071-2.201 10.905.106 2.27.863 4.694 2.302 5.473 1.343.722 2.81-.163 4.107-1.039a313.71 313.71 0 0 0 1.642-1.101c1.97-1.323 4.153-2.679 6.234-1.794 1.905.808 3.312 3.506 3.58 6.416a13.266 13.266 0 0 1-1.882 8.057Zm11.717 41.115-17.262-11.081.098-.262c-3.578 1.421-5.063 8.05-4.472 13.472.591 5.422 2.596 10.268 3.609 15.551a42.94 42.94 0 0 1-1.493 21.659 177.4 177.4 0 0 0 19.988-28.713 15.727 15.727 0 0 0 1.808-4.179 6.912 6.912 0 0 0-.423-4.729 5.126 5.126 0 0 0-1.853-1.718Z" fill="#00B0FF"/><path d="M320.486 107.842a6.887 6.887 0 0 0-.291 4.824 5.216 5.216 0 0 0 2.865 2.767l3.179 1.643c1.058.546 2.198 1.098 3.276.648 1.301-.542 2.202-2.667 1.969-4.641-.248-2.099-1.518-3.544-2.692-4.774l-4.929-5.163-.926 1.182a12.873 12.873 0 0 0-2.451 3.514Zm111.916 22.448 4.291 1.053c-.249 5.036-2.644 9.697-5.855 11.385-1.338.703-2.829.962-3.936 2.275-1.001 1.193-1.509 3.05-1.975 4.825l-2.45 9.293c-.876 3.338-2.002 7.046-4.281 8.249-1.957 1.034-4.194-.231-5.698-2.352-1.505-2.121-2.423-4.974-3.313-7.754.055 3.03-1.297 6.003-3.212 7.056-1.919 1.054-4.254.101-5.536-2.251-.923-1.688-1.306-3.915-2.21-5.627-.905-1.713-2.801-2.694-3.788-1.088-.651 1.068-.568 2.704-.891 4.06a4.46 4.46 0 0 1-1.223 2.361 4.164 4.164 0 0 1-2.311 1.184 5.7 5.7 0 0 1-2.314-.554 5.92 5.92 0 0 1-1.917-1.461c-2.825-3.013-4.665-6.88-5.255-11.049-.4-1.998-.35-4.066.148-6.041.567-1.871 1.937-3.314 3.298-2.958.896-1.972-.871-4.589-2.463-4.358-1.597.231-2.847 2.015-4.157 3.386-1.306 1.371-3.133 2.367-4.448 1.005.029.498-.132.988-.449 1.362a1.779 1.779 0 0 1-1.383.635 6.467 6.467 0 0 1-2.385-1.318c-3.013-1.958-6.838-.659-8.979 3.044 1.338-5.935 3.299-12.746 7.41-14.141 1.679-.573 3.511-.101 5.098-1.092 2.81-1.756 3.378-8.389.951-11.125.309 2.587.249 5.608-1.061 7.378-1.311 1.77-4.061.616-3.894-2.001a1.798 1.798 0 0 1-.423.989 1.671 1.671 0 0 1-.9.542 1.624 1.624 0 0 1-1.034-.114 1.71 1.71 0 0 1-.772-.724c-.872-1.386-.798-3.651-.18-5.306a12.525 12.525 0 0 1 2.69-3.982c2.192-2.449 4.416-4.926 6.953-6.465 2.543-1.539 5.477-2.059 8.024-.529 1.343.808 2.524 2.155 3.894 2.867.322.208.68.348 1.054.412a2.775 2.775 0 0 0 2.151-.525c.308-.23.569-.522.769-.857l.045-.079c1.019-1.866.54-4.637.918-6.97.678-4.122 4.632-6.05 6.824-3.328-1.638-.438-3.331 1.582-3.534 4.031-.208 2.448.978 4.92 2.565 5.661 2.667 1.231 5.278-1.866 7.295-4.733a4943.03 4943.03 0 0 1 6.321-9c.336-.51.715-.99 1.13-1.433a3.564 3.564 0 0 1 2.464-1.076 3.553 3.553 0 0 1 2.505.97c2.132 1.814 3.133 5.532 4.882 8.091 2.537 3.718 6.334 4.622 9.869 5.344 2.634.534 5.27 1.071 7.908 1.611a87.302 87.302 0 0 1 4.591 10.568c-4.837 2.299-8.94 5.996-11.821 10.654Zm8.517 57.873a87.077 87.077 0 0 1-6.875 11.992c-1.661-.741-3.446.582-5.001 1.823-1.624 1.298-3.576 2.563-5.242 1.38-1.702-1.212-2.251-4.603-1.711-7.292a19.761 19.761 0 0 1 3.193-6.849c1.384-2.155 2.865-4.392 4.789-5.229 1.928-.837 4.406.347 4.969 3.204l1.366-.048c-.766-1.097-.365-3.367.664-3.767 1.186-.466 2.215 1.232 2.916 2.733.314.678.632 1.361.932 2.053Z" fill="#00B0FF"/><path d="M388.613 167.846c-2.935.193-5.26-3.574-6.805-7.281-1.546-3.706-2.955-7.944-5.604-9.831-1.514-1.078-3.239-1.226-4.881-1.748a5.96 5.96 0 0 1-2.513-1.38 6.295 6.295 0 0 1-1.631-2.424l-1.862-.784a27.983 27.983 0 0 0-7.07 5.255c-2.377 2.632-3.857 6.006-4.213 9.601-.356 3.886.958 8.219 3.412 9.678 1.939 1.154 4.197.427 6.162 1.483 2.454 1.319 3.911 5.151 4.463 8.935.551 3.784.411 7.716.806 11.542.395 3.827 1.482 7.809 3.733 9.77 2.817 2.454 6.95.415 8.213-4.052.62-2.191.599-4.664 1.063-6.939.816-4.005 3.019-6.977 4.766-10.263 1.748-3.286 3.124-7.748 1.961-11.562Zm-29.007-39.36c.274.262.53.545.765.846a2.876 2.876 0 0 1-.047 2.87 2.475 2.475 0 0 0 1.015-.286c.315-.167.594-.401.819-.686a12.328 12.328 0 0 0 1.407-2.065 2.317 2.317 0 0 0 .414-1.802c-.138-.413-.466-.589-.696-.899a6.3 6.3 0 0 1-.644-1.948 3.556 3.556 0 0 0-.855-1.704 3.34 3.34 0 0 0-1.587-.979l.147.029c-.25.155-.448.388-.565.666a1.51 1.51 0 0 0-.088.884c.089.6.459 1.098.422 1.71-.053.881-.897 1.294-.949 2.174-.008.442.151.869.442 1.19Zm-5.029-14.96.013-.002c.09-.086.174-.179.25-.278l-.263.28Z" fill="#00B0FF"/><path d="M355.457 117.658c.353-.322.614-.739.754-1.206.141-.467.155-.964.043-1.439-.213-1.001-.968-1.674-1.664-1.489-.202.213-.453.37-.729.454a1.628 1.628 0 0 1-.848.03c-.431-.116-.903-.413-1.277-.075a2.042 2.042 0 0 0-.434.885l-.415 1.326a.873.873 0 0 0-.049.503.421.421 0 0 0 .124.172.39.39 0 0 0 .189.087l2.487.765a2.071 2.071 0 0 0 1.819-.013Zm62.584 57.046-1.15-1.962a6.516 6.516 0 0 0-1.515-1.983 1.305 1.305 0 0 0-1.891.174l-.02.026.047.373a8.572 8.572 0 0 1 2.019 4.107c.087.669.057 1.361.134 2.032.008.311.074.618.196.902.122.285.297.541.514.755.603.42 1.311-.199 1.741-.955a3.402 3.402 0 0 0 .489-2.095 3.771 3.771 0 0 0-.564-1.374Zm6.011.852a4.73 4.73 0 0 0-.14-1.827 4.13 4.13 0 0 1 .585-2.272 7.565 7.565 0 0 0 .912-2.084 1.82 1.82 0 0 0-.044-1.021c-.127-.297-.434-.432-.61-.197l.377.253a3.306 3.306 0 0 0-1.531.078 1.894 1.894 0 0 0-.74.533 2.017 2.017 0 0 0-.42.83 8.726 8.726 0 0 1-.304 1.414c-.225.482-.66.642-.934 1.066a2.632 2.632 0 0 0 .039 2.42c.343.602.889 1.05 1.532 1.256.461.173 1.067.182 1.278-.449Zm10.705 3.367c.167.451.39.878.664 1.269.512.538 1.209.207 1.83.077a3.054 3.054 0 0 1 1.673.196c.53.222.992.589 1.339 1.063a8.148 8.148 0 0 0-1.535-3.427 7.72 7.72 0 0 0-2.874-2.307 12.482 12.482 0 0 0-4.533-.739l-.264.071c.671 2.035 2.778 1.99 3.7 3.797Zm-45.341 4.164.004.009.077-.154-.081.145Zm-1.624 3.277a15.43 15.43 0 0 0-.911 2.087 18.856 18.856 0 0 0-.66 3.57c-.082.688-.108 1.567.306 1.902a.567.567 0 0 0 .767-.109c.23-.253.418-.544.556-.862a20.298 20.298 0 0 0 1.878-4.646 8.4 8.4 0 0 0-.308-5.21l-1.628 3.268Zm-15.667-87.309c.258.263.584.441.938.513a1.78 1.78 0 0 0 1.055-.108 6.58 6.58 0 0 0 1.875-1.29c.455-.351.84-.79 1.136-1.293a2.702 2.702 0 0 0 .233-1.997 2.018 2.018 0 0 0-.59-.812 1.905 1.905 0 0 0-.893-.411l-2.761-.853.666-.626c-.685-.383-1.443.328-1.871 1.209a6.72 6.72 0 0 0-.567 1.822 4.858 4.858 0 0 0-.017 2.013c.135.664.406 1.29.796 1.833Zm16.245-5.685a1.476 1.476 0 0 0 2.072.176 2.39 2.39 0 0 0 .634-.76 2.5 2.5 0 0 0 .283-.961c.065-.755-.293-1.593-.804-1.659l.117-.706c-.985-.185-2.197-.223-2.724 1.024a3.044 3.044 0 0 0-.159 1.502c.075.506.275.983.581 1.384Z" fill="#00B0FF"/><path d="M321.433 144.19c3.392 0 6.142-3.844 6.142-8.586 0-4.742-2.75-8.587-6.142-8.587-3.392 0-6.142 3.845-6.142 8.587 0 4.742 2.75 8.586 6.142 8.586Zm112.243 106.322c2.932-.814 4.869-3.198 4.325-5.325-.543-2.126-3.36-3.19-6.293-2.376-2.932.814-4.869 3.198-4.325 5.325.543 2.126 3.36 3.19 6.293 2.376Zm-35.915.692c2.932-.814 4.869-3.198 4.326-5.324-.544-2.127-3.361-3.191-6.294-2.377-2.932.814-4.869 3.198-4.325 5.325.543 2.126 3.36 3.19 6.293 2.376Zm42.295-31.844c2.933-.814 4.869-3.198 4.326-5.325-.543-2.126-3.361-3.19-6.293-2.376-2.932.814-4.869 3.198-4.326 5.324.543 2.127 3.361 3.191 6.293 2.377Zm10.593-13.242c1.324-.171 2.206-1.919 1.97-3.903-.235-1.984-1.5-3.454-2.824-3.283-1.324.172-2.206 1.919-1.97 3.903s1.5 3.454 2.824 3.283Zm2.682-23.503c1.324-.171 2.206-1.918 1.97-3.902-.236-1.984-1.5-3.454-2.824-3.283-1.324.171-2.206 1.918-1.97 3.903.236 1.984 1.5 3.453 2.824 3.282Zm-36.204 45.181c1.324-.172 2.206-1.919 1.97-3.903s-1.501-3.454-2.825-3.283c-1.324.172-2.206 1.919-1.97 3.903s1.501 3.454 2.825 3.283Zm18.158 6.851c1.324-.171 2.206-1.918 1.97-3.902-.236-1.984-1.5-3.454-2.824-3.283-1.324.171-2.206 1.919-1.97 3.903s1.5 3.454 2.824 3.282Zm-22.047 19.407c1.324-.171 2.206-1.918 1.97-3.902-.236-1.984-1.501-3.454-2.825-3.283-1.324.171-2.206 1.918-1.97 3.903.236 1.984 1.501 3.454 2.825 3.282ZM255.15 219.069c2.932-.815 4.869-3.199 4.326-5.325-.544-2.127-3.361-3.191-6.293-2.377-2.933.815-4.869 3.199-4.326 5.325.543 2.127 3.361 3.191 6.293 2.377Zm-35.917.693c2.933-.814 4.869-3.198 4.326-5.324-.543-2.127-3.361-3.191-6.293-2.377-2.932.814-4.869 3.198-4.326 5.325.543 2.126 3.361 3.19 6.293 2.376Zm42.299-31.847c2.932-.814 4.869-3.198 4.325-5.324-.543-2.127-3.36-3.191-6.293-2.377-2.932.815-4.869 3.198-4.325 5.325.543 2.127 3.36 3.191 6.293 2.376Zm10.592-13.241c1.324-.171 2.206-1.918 1.97-3.902-.236-1.984-1.501-3.454-2.825-3.283-1.324.171-2.206 1.918-1.97 3.902.236 1.985 1.501 3.454 2.825 3.283Zm2.681-23.502c1.324-.171 2.206-1.918 1.97-3.903-.236-1.984-1.5-3.453-2.824-3.282-1.324.171-2.206 1.918-1.97 3.902.236 1.984 1.5 3.454 2.824 3.283Zm-36.204 45.18c1.324-.171 2.206-1.918 1.97-3.902-.236-1.984-1.501-3.454-2.825-3.283-1.324.171-2.206 1.918-1.97 3.902.236 1.985 1.501 3.454 2.825 3.283Zm18.158 6.852c1.324-.171 2.206-1.918 1.97-3.903-.236-1.984-1.5-3.453-2.824-3.282-1.324.171-2.206 1.918-1.97 3.902.236 1.984 1.5 3.454 2.824 3.283Zm-22.047 19.407c1.324-.171 2.206-1.918 1.97-3.903-.236-1.984-1.501-3.453-2.825-3.282-1.324.171-2.206 1.918-1.97 3.902.236 1.984 1.501 3.454 2.825 3.283ZM473.358 75.095c2.933-.814 4.869-3.198 4.326-5.324-.543-2.127-3.361-3.19-6.293-2.377-2.932.814-4.869 3.198-4.326 5.325.544 2.127 3.361 3.19 6.293 2.376Zm-35.916.694c2.932-.814 4.869-3.198 4.326-5.325-.544-2.126-3.361-3.19-6.293-2.376-2.933.814-4.869 3.198-4.326 5.325.543 2.126 3.361 3.19 6.293 2.376Zm42.298-31.848c2.932-.814 4.869-3.198 4.326-5.324-.543-2.127-3.361-3.19-6.293-2.377-2.933.815-4.869 3.198-4.326 5.325.543 2.127 3.361 3.19 6.293 2.377Zm10.592-13.24c1.324-.171 2.206-1.918 1.97-3.902-.236-1.985-1.5-3.454-2.824-3.283-1.324.171-2.206 1.918-1.97 3.902.236 1.985 1.5 3.454 2.824 3.283Zm2.682-23.502c1.324-.171 2.206-1.919 1.97-3.903s-1.501-3.454-2.825-3.282c-1.324.17-2.206 1.918-1.97 3.902.236 1.984 1.501 3.454 2.825 3.283Zm-36.204 45.18c1.324-.171 2.206-1.918 1.97-3.902-.236-1.985-1.501-3.454-2.825-3.283-1.324.17-2.206 1.918-1.97 3.902.236 1.984 1.501 3.454 2.825 3.283Zm18.158 6.851c1.324-.17 2.206-1.917 1.97-3.902-.236-1.984-1.501-3.454-2.825-3.282-1.324.17-2.206 1.918-1.97 3.902.236 1.984 1.501 3.454 2.825 3.283ZM452.92 78.638c1.324-.171 2.206-1.919 1.97-3.903s-1.5-3.454-2.824-3.282c-1.324.17-2.206 1.918-1.97 3.902.236 1.984 1.5 3.454 2.824 3.283Z" fill="#E6E6E6"/><path d="M244.358 224.395c-5.876 0-9.696-1.522-11.387-4.548-3.334-5.967 2.25-16.438 16.598-31.12l1.205 1.279c-13.328 13.64-19.122 23.916-16.317 28.938 1.776 3.176 7.059 4.315 15.283 3.291 8.164-1.016 18.984-4.045 32.158-9.001 27.122-10.204 61.149-27.417 95.813-48.467 34.663-21.05 65.81-43.416 87.705-62.978 4.205-3.758 8.021-7.374 11.343-10.745a116.243 116.243 0 0 0 12.03-13.977c4.911-6.951 6.568-12.305 4.793-15.482-2.965-5.306-15.42-4.807-35.073 1.407l-.499-1.716c21.085-6.666 33.554-6.866 37.059-.593 2.178 3.897.531 9.767-4.895 17.448a117.966 117.966 0 0 1-12.215 14.198c-3.347 3.398-7.191 7.039-11.424 10.822-21.971 19.63-53.208 42.063-87.958 63.165-34.751 21.104-68.878 38.365-96.095 48.605-13.297 5.003-24.244 8.063-32.538 9.095a45.574 45.574 0 0 1-5.586.379Z" fill="#3F3D56"/></g><defs><clipPath id="a"><path fill="#fff" d="M0 0h496v408H0z"/></clipPath></defs></svg>